<?xml version="1.0" encoding="us-ascii" standalone="no"?><svg xmlns="http://www.w3.org/2000/svg" xmlns:xlink="http://www.w3.org/1999/xlink" contentStyleType="text/css" height="1767px" preserveAspectRatio="none" style="width:3675px;height:1767px;background:#1B1B1B;" version="1.1" viewBox="0 0 3675 1767" width="3675px" zoomAndPan="magnify"><defs/><g><rect fill="#1B1B1B" height="1767" style="stroke:none;stroke-width:1.0;" width="3675" x="0" y="0"/><!--cluster src--><g id="cluster_src"><path d="M8.5,6 L34.5,6 A3.75,3.75 0 0 1 37,8.5 L44,28.2969 L3665.5,28.2969 A2.5,2.5 0 0 1 3668,30.7969 L3668,1757.5 A2.5,2.5 0 0 1 3665.5,1760 L8.5,1760 A2.5,2.5 0 0 1 6,1757.5 L6,8.5 A2.5,2.5 0 0 1 8.5,6 " fill="none" style="stroke:#FFFFFF;stroke-width:1.5;"/><line style="stroke:#FFFFFF;stroke-width:1.5;" x1="6" x2="44" y1="28.2969" y2="28.2969"/><text fill="#FFFFFF" font-family="sans-serif" font-size="14" font-weight="bold" lengthAdjust="spacing" textLength="25" x="10" y="20.9951">src</text></g><!--cluster main--><g id="cluster_main"><path d="M32.5,49 L73.5,49 A3.75,3.75 0 0 1 76,51.5 L83,71.2969 L3641.5,71.2969 A2.5,2.5 0 0 1 3644,73.7969 L3644,1733.5 A2.5,2.5 0 0 1 3641.5,1736 L32.5,1736 A2.5,2.5 0 0 1 30,1733.5 L30,51.5 A2.5,2.5 0 0 1 32.5,49 " fill="none" style="stroke:#FFFFFF;stroke-width:1.5;"/><line style="stroke:#FFFFFF;stroke-width:1.5;" x1="30" x2="83" y1="71.2969" y2="71.2969"/><text fill="#FFFFFF" font-family="sans-serif" font-size="14" font-weight="bold" lengthAdjust="spacing" textLength="40" x="34" y="63.9951">main</text></g><!--cluster java--><g id="cluster_java"><path d="M56.5,92 L91.5,92 A3.75,3.75 0 0 1 94,94.5 L101,114.2969 L3617.5,114.2969 A2.5,2.5 0 0 1 3620,116.7969 L3620,1709.5 A2.5,2.5 0 0 1 3617.5,1712 L56.5,1712 A2.5,2.5 0 0 1 54,1709.5 L54,94.5 A2.5,2.5 0 0 1 56.5,92 " fill="none" style="stroke:#FFFFFF;stroke-width:1.5;"/><line style="stroke:#FFFFFF;stroke-width:1.5;" x1="54" x2="101" y1="114.2969" y2="114.2969"/><text fill="#FFFFFF" font-family="sans-serif" font-size="14" font-weight="bold" lengthAdjust="spacing" textLength="34" x="58" y="106.9951">java</text></g><!--cluster pe--><g id="cluster_pe"><path d="M80.5,135 L100.5,135 A3.75,3.75 0 0 1 103,137.5 L110,157.2969 L3593.5,157.2969 A2.5,2.5 0 0 1 3596,159.7969 L3596,1685.5 A2.5,2.5 0 0 1 3593.5,1688 L80.5,1688 A2.5,2.5 0 0 1 78,1685.5 L78,137.5 A2.5,2.5 0 0 1 80.5,135 " fill="none" style="stroke:#FFFFFF;stroke-width:1.5;"/><line style="stroke:#FFFFFF;stroke-width:1.5;" x1="78" x2="110" y1="157.2969" y2="157.2969"/><text fill="#FFFFFF" font-family="sans-serif" font-size="14" font-weight="bold" lengthAdjust="spacing" textLength="19" x="82" y="149.9951">pe</text></g><!--cluster edu--><g id="cluster_edu"><path d="M104.5,178 L134.5,178 A3.75,3.75 0 0 1 137,180.5 L144,200.2969 L3569.5,200.2969 A2.5,2.5 0 0 1 3572,202.7969 L3572,1661.5 A2.5,2.5 0 0 1 3569.5,1664 L104.5,1664 A2.5,2.5 0 0 1 102,1661.5 L102,180.5 A2.5,2.5 0 0 1 104.5,178 " fill="none" style="stroke:#FFFFFF;stroke-width:1.5;"/><line style="stroke:#FFFFFF;stroke-width:1.5;" x1="102" x2="144" y1="200.2969" y2="200.2969"/><text fill="#FFFFFF" font-family="sans-serif" font-size="14" font-weight="bold" lengthAdjust="spacing" textLength="29" x="106" y="192.9951">edu</text></g><!--cluster utp--><g id="cluster_utp"><path d="M128.5,221 L157.5,221 A3.75,3.75 0 0 1 160,223.5 L167,243.2969 L3545.5,243.2969 A2.5,2.5 0 0 1 3548,245.7969 L3548,1637.5 A2.5,2.5 0 0 1 3545.5,1640 L128.5,1640 A2.5,2.5 0 0 1 126,1637.5 L126,223.5 A2.5,2.5 0 0 1 128.5,221 " fill="none" style="stroke:#FFFFFF;stroke-width:1.5;"/><line style="stroke:#FFFFFF;stroke-width:1.5;" x1="126" x2="167" y1="243.2969" y2="243.2969"/><text fill="#FFFFFF" font-family="sans-serif" font-size="14" font-weight="bold" lengthAdjust="spacing" textLength="28" x="130" y="235.9951">utp</text></g><!--cluster util--><g id="cluster_util"><path d="M165.5,926 L194.5,926 A3.75,3.75 0 0 1 197,928.5 L204,948.2969 L3508.5,948.2969 A2.5,2.5 0 0 1 3511,950.7969 L3511,1613.5 A2.5,2.5 0 0 1 3508.5,1616 L165.5,1616 A2.5,2.5 0 0 1 163,1613.5 L163,928.5 A2.5,2.5 0 0 1 165.5,926 " fill="none" style="stroke:#FFFFFF;stroke-width:1.5;"/><line style="stroke:#FFFFFF;stroke-width:1.5;" x1="163" x2="204" y1="948.2969" y2="948.2969"/><text fill="#FFFFFF" font-family="sans-serif" font-size="14" font-weight="bold" lengthAdjust="spacing" textLength="28" x="167" y="940.9951">util</text></g><!--class DatasSismos--><g id="elem_DatasSismos"><rect codeLine="26" fill="#313139" height="520.6094" id="DatasSismos" rx="2.5" ry="2.5" style="stroke:#E7E7E7;stroke-width:0.5;" width="1097" x="1337.5" y="380"/><ellipse cx="1836.25" cy="396" fill="#2E5233" rx="11" ry="11" style="stroke:#E7E7E7;stroke-width:1.0;"/><path d="M1838.5938,391.6719 C1837.6563,391.2344 1837.0625,391.0938 1836.1875,391.0938 C1833.5625,391.0938 1831.5625,393.1719 1831.5625,395.8906 L1831.5625,397.0156 C1831.5625,399.5938 1833.6719,401.4844 1836.5625,401.4844 C1837.7813,401.4844 1838.9375,401.1875 1839.6875,400.6406 C1840.2656,400.2344 1840.5938,399.7813 1840.5938,399.3906 C1840.5938,398.9375 1840.2031,398.5469 1839.7344,398.5469 C1839.5156,398.5469 1839.3125,398.625 1839.125,398.8125 C1838.6719,399.2969 1838.6719,399.2969 1838.4844,399.3906 C1838.0625,399.6563 1837.375,399.7813 1836.6094,399.7813 C1834.5625,399.7813 1833.2656,398.6875 1833.2656,396.9844 L1833.2656,395.8906 C1833.2656,394.1094 1834.5156,392.7969 1836.25,392.7969 C1836.8281,392.7969 1837.4375,392.9531 1837.9063,393.2031 C1838.3906,393.4844 1838.5625,393.7031 1838.6563,394.1094 C1838.7188,394.5156 1838.75,394.6406 1838.8906,394.7656 C1839.0313,394.9063 1839.2656,395.0156 1839.4844,395.0156 C1839.75,395.0156 1840.0156,394.875 1840.1875,394.6563 C1840.2969,394.5 1840.3281,394.3125 1840.3281,393.8906 L1840.3281,392.4688 C1840.3281,392.0313 1840.3125,391.9063 1840.2188,391.75 C1840.0625,391.4844 1839.7813,391.3438 1839.4844,391.3438 C1839.1875,391.3438 1838.9844,391.4375 1838.7656,391.75 L1838.5938,391.6719 Z " fill="#FFFFFF"/><text fill="#FFFFFF" font-family="sans-serif" font-size="14" lengthAdjust="spacing" textLength="91" x="1856.75" y="400.8467">DatasSismos</text><line style="stroke:#E7E7E7;stroke-width:0.5;" x1="1338.5" x2="2433.5" y1="412" y2="412"/><rect fill="none" height="6" style="stroke:#C82930;stroke-width:1.0;" width="6" x="1345.5" y="422.6484"/><text fill="#FFFFFF" font-family="sans-serif" font-size="14" lengthAdjust="spacing" textLength="62" x="1357.5" y="428.9951">id : long;</text><rect fill="none" height="6" style="stroke:#C82930;stroke-width:1.0;" width="6" x="1345.5" y="438.9453"/><text fill="#FFFFFF" font-family="sans-serif" font-size="14" lengthAdjust="spacing" textLength="130" x="1357.5" y="445.292">fechaUTC : String;</text><rect fill="none" height="6" style="stroke:#C82930;stroke-width:1.0;" width="6" x="1345.5" y="455.2422"/><text fill="#FFFFFF" font-family="sans-serif" font-size="14" lengthAdjust="spacing" textLength="122" x="1357.5" y="461.5889">horaUTC : String;</text><rect fill="none" height="6" style="stroke:#C82930;stroke-width:1.0;" width="6" x="1345.5" y="471.5391"/><text fill="#FFFFFF" font-family="sans-serif" font-size="14" lengthAdjust="spacing" textLength="114" x="1357.5" y="477.8857">latitud : double;</text><rect fill="none" height="6" style="stroke:#C82930;stroke-width:1.0;" width="6" x="1345.5" y="487.8359"/><text fill="#FFFFFF" font-family="sans-serif" font-size="14" lengthAdjust="spacing" textLength="126" x="1357.5" y="494.1826">longitud : double;</text><rect fill="none" height="6" style="stroke:#C82930;stroke-width:1.0;" width="6" x="1345.5" y="504.1328"/><text fill="#FFFFFF" font-family="sans-serif" font-size="14" lengthAdjust="spacing" textLength="125" x="1357.5" y="510.4795">profundidad : int;</text><rect fill="none" height="6" style="stroke:#C82930;stroke-width:1.0;" width="6" x="1345.5" y="520.4297"/><text fill="#FFFFFF" font-family="sans-serif" font-size="14" lengthAdjust="spacing" textLength="135" x="1357.5" y="526.7764">magnitud : double;</text><rect fill="none" height="6" style="stroke:#C82930;stroke-width:1.0;" width="6" x="1345.5" y="536.7266"/><text fill="#FFFFFF" font-family="sans-serif" font-size="14" lengthAdjust="spacing" textLength="143" x="1357.5" y="543.0732">fechaCorte : String;</text><line style="stroke:#E7E7E7;stroke-width:0.5;" x1="1338.5" x2="2433.5" y1="550.375" y2="550.375"/><ellipse cx="1348.5" cy="564.0234" fill="#84BE84" rx="3" ry="3" style="stroke:#038048;stroke-width:1.0;"/><text fill="#FFFFFF" font-family="sans-serif" font-size="14" lengthAdjust="spacing" textLength="98" x="1357.5" y="567.3701">DataSismos ()</text><ellipse cx="1348.5" cy="580.3203" fill="#84BE84" rx="3" ry="3" style="stroke:#038048;stroke-width:1.0;"/><text fill="#FFFFFF" font-family="sans-serif" font-size="14" lengthAdjust="spacing" textLength="228" x="1357.5" y="583.667">DataSismos (magnitud : double)</text><ellipse cx="1348.5" cy="596.6172" fill="#84BE84" rx="3" ry="3" style="stroke:#038048;stroke-width:1.0;"/><text fill="#FFFFFF" font-family="sans-serif" font-size="14" lengthAdjust="spacing" textLength="1071" x="1357.5" y="599.9639">DataSismos (id : long, fechaUTC : String, horaUTC : String, latitud : double, longitud : double, profundidad : int, magnitud : double, fechaCorte : String)</text><ellipse cx="1348.5" cy="612.9141" fill="#84BE84" rx="3" ry="3" style="stroke:#038048;stroke-width:1.0;"/><text fill="#FFFFFF" font-family="sans-serif" font-size="14" lengthAdjust="spacing" textLength="1071" x="1357.5" y="616.2607">DataSismos (id : long, parse : LocalDate, horaUTC : String, latitud : double, longitud : double, profundidad : int, magnitud : double, fechaCorte : String)</text><ellipse cx="1348.5" cy="629.2109" fill="#84BE84" rx="3" ry="3" style="stroke:#038048;stroke-width:1.0;"/><text fill="#FFFFFF" font-family="sans-serif" font-size="14" lengthAdjust="spacing" textLength="96" x="1357.5" y="632.5576">getId () : long</text><ellipse cx="1348.5" cy="645.5078" fill="#84BE84" rx="3" ry="3" style="stroke:#038048;stroke-width:1.0;"/><text fill="#FFFFFF" font-family="sans-serif" font-size="14" lengthAdjust="spacing" textLength="150" x="1357.5" y="648.8545">setId (id : long) : void</text><ellipse cx="1348.5" cy="661.8047" fill="#84BE84" rx="3" ry="3" style="stroke:#038048;stroke-width:1.0;"/><text fill="#FFFFFF" font-family="sans-serif" font-size="14" lengthAdjust="spacing" textLength="166" x="1357.5" y="665.1514">getFechaUTC () : String</text><ellipse cx="1348.5" cy="678.1016" fill="#84BE84" rx="3" ry="3" style="stroke:#038048;stroke-width:1.0;"/><text fill="#FFFFFF" font-family="sans-serif" font-size="14" lengthAdjust="spacing" textLength="275" x="1357.5" y="681.4482">setFechaUTC (fechaUTC : String) : void</text><ellipse cx="1348.5" cy="694.3984" fill="#84BE84" rx="3" ry="3" style="stroke:#038048;stroke-width:1.0;"/><text fill="#FFFFFF" font-family="sans-serif" font-size="14" lengthAdjust="spacing" textLength="157" x="1357.5" y="697.7451">getHoraUTC () : String</text><ellipse cx="1348.5" cy="710.6953" fill="#84BE84" rx="3" ry="3" style="stroke:#038048;stroke-width:1.0;"/><text fill="#FFFFFF" font-family="sans-serif" font-size="14" lengthAdjust="spacing" textLength="258" x="1357.5" y="714.042">setHoraUTC (horaUTC : String) : void</text><ellipse cx="1348.5" cy="726.9922" fill="#84BE84" rx="3" ry="3" style="stroke:#038048;stroke-width:1.0;"/><text fill="#FFFFFF" font-family="sans-serif" font-size="14" lengthAdjust="spacing" textLength="152" x="1357.5" y="730.3389">getLatitud () : double</text><ellipse cx="1348.5" cy="743.2891" fill="#84BE84" rx="3" ry="3" style="stroke:#038048;stroke-width:1.0;"/><text fill="#FFFFFF" font-family="sans-serif" font-size="14" lengthAdjust="spacing" textLength="240" x="1357.5" y="746.6357">setLatitud (latitud : double) : void</text><ellipse cx="1348.5" cy="759.5859" fill="#84BE84" rx="3" ry="3" style="stroke:#038048;stroke-width:1.0;"/><text fill="#FFFFFF" font-family="sans-serif" font-size="14" lengthAdjust="spacing" textLength="164" x="1357.5" y="762.9326">getLongitud () : double</text><ellipse cx="1348.5" cy="775.8828" fill="#84BE84" rx="3" ry="3" style="stroke:#038048;stroke-width:1.0;"/><text fill="#FFFFFF" font-family="sans-serif" font-size="14" lengthAdjust="spacing" textLength="264" x="1357.5" y="779.2295">setLongitud (longitud : double) : void</text><ellipse cx="1348.5" cy="792.1797" fill="#84BE84" rx="3" ry="3" style="stroke:#038048;stroke-width:1.0;"/><text fill="#FFFFFF" font-family="sans-serif" font-size="14" lengthAdjust="spacing" textLength="154" x="1357.5" y="795.5264">getProfundidad() : int</text><ellipse cx="1348.5" cy="808.4766" fill="#84BE84" rx="3" ry="3" style="stroke:#038048;stroke-width:1.0;"/><text fill="#FFFFFF" font-family="sans-serif" font-size="14" lengthAdjust="spacing" textLength="282" x="1357.5" y="811.8232">setProfundidad(profundidad : int) : void</text><ellipse cx="1348.5" cy="824.7734" fill="#84BE84" rx="3" ry="3" style="stroke:#038048;stroke-width:1.0;"/><text fill="#FFFFFF" font-family="sans-serif" font-size="14" lengthAdjust="spacing" textLength="163" x="1357.5" y="828.1201">getMagnitud() : double</text><ellipse cx="1348.5" cy="841.0703" fill="#84BE84" rx="3" ry="3" style="stroke:#038048;stroke-width:1.0;"/><text fill="#FFFFFF" font-family="sans-serif" font-size="14" lengthAdjust="spacing" textLength="272" x="1357.5" y="844.417">setMagnitud(magnitud : double) : void</text><ellipse cx="1348.5" cy="857.3672" fill="#84BE84" rx="3" ry="3" style="stroke:#038048;stroke-width:1.0;"/><text fill="#FFFFFF" font-family="sans-serif" font-size="14" lengthAdjust="spacing" textLength="175" x="1357.5" y="860.7139">getFechaCorte() : String</text><ellipse cx="1348.5" cy="873.6641" fill="#84BE84" rx="3" ry="3" style="stroke:#038048;stroke-width:1.0;"/><text fill="#FFFFFF" font-family="sans-serif" font-size="14" lengthAdjust="spacing" textLength="297" x="1357.5" y="877.0107">setFechaCorte(fechaCorte : String) : void</text><ellipse cx="1348.5" cy="889.9609" fill="#84BE84" rx="3" ry="3" style="stroke:#038048;stroke-width:1.0;"/><text fill="#FFFFFF" font-family="sans-serif" font-size="14" lengthAdjust="spacing" textLength="131" x="1357.5" y="893.3076">toString () : String</text></g><!--class AppReportSismos--><g id="elem_AppReportSismos"><rect codeLine="23" fill="#313139" height="64.2969" id="AppReportSismos" rx="2.5" ry="2.5" style="stroke:#E7E7E7;stroke-width:0.5;" width="202" x="1492" y="256"/><ellipse cx="1524.55" cy="272" fill="#2E5233" rx="11" ry="11" style="stroke:#E7E7E7;stroke-width:1.0;"/><path d="M1526.8938,267.6719 C1525.9563,267.2344 1525.3625,267.0938 1524.4875,267.0938 C1521.8625,267.0938 1519.8625,269.1719 1519.8625,271.8906 L1519.8625,273.0156 C1519.8625,275.5938 1521.9719,277.4844 1524.8625,277.4844 C1526.0813,277.4844 1527.2375,277.1875 1527.9875,276.6406 C1528.5656,276.2344 1528.8938,275.7813 1528.8938,275.3906 C1528.8938,274.9375 1528.5031,274.5469 1528.0344,274.5469 C1527.8156,274.5469 1527.6125,274.625 1527.425,274.8125 C1526.9719,275.2969 1526.9719,275.2969 1526.7844,275.3906 C1526.3625,275.6563 1525.675,275.7813 1524.9094,275.7813 C1522.8625,275.7813 1521.5656,274.6875 1521.5656,272.9844 L1521.5656,271.8906 C1521.5656,270.1094 1522.8156,268.7969 1524.55,268.7969 C1525.1281,268.7969 1525.7375,268.9531 1526.2063,269.2031 C1526.6906,269.4844 1526.8625,269.7031 1526.9563,270.1094 C1527.0188,270.5156 1527.05,270.6406 1527.1906,270.7656 C1527.3313,270.9063 1527.5656,271.0156 1527.7844,271.0156 C1528.05,271.0156 1528.3156,270.875 1528.4875,270.6563 C1528.5969,270.5 1528.6281,270.3125 1528.6281,269.8906 L1528.6281,268.4688 C1528.6281,268.0313 1528.6125,267.9063 1528.5188,267.75 C1528.3625,267.4844 1528.0813,267.3438 1527.7844,267.3438 C1527.4875,267.3438 1527.2844,267.4375 1527.0656,267.75 L1526.8938,267.6719 Z " fill="#FFFFFF"/><text fill="#FFFFFF" font-family="sans-serif" font-size="14" lengthAdjust="spacing" textLength="131" x="1542.45" y="276.8467">AppReportSismos</text><line style="stroke:#E7E7E7;stroke-width:0.5;" x1="1493" x2="1693" y1="288" y2="288"/><line style="stroke:#E7E7E7;stroke-width:0.5;" x1="1493" x2="1693" y1="296" y2="296"/><ellipse cx="1503" cy="309.6484" fill="#84BE84" rx="3" ry="3" style="stroke:#038048;stroke-width:1.0;"/><text fill="#FFFFFF" font-family="sans-serif" font-size="14" lengthAdjust="spacing" text-decoration="underline" textLength="176" x="1512" y="312.9951">main(String[] args) : void</text></g><!--class TestSismos--><g id="elem_TestSismos"><rect codeLine="57" fill="#313139" height="64.2969" id="TestSismos" rx="2.5" ry="2.5" style="stroke:#E7E7E7;stroke-width:0.5;" width="202" x="860" y="256"/><ellipse cx="915.75" cy="272" fill="#2E5233" rx="11" ry="11" style="stroke:#E7E7E7;stroke-width:1.0;"/><path d="M918.0938,267.6719 C917.1563,267.2344 916.5625,267.0938 915.6875,267.0938 C913.0625,267.0938 911.0625,269.1719 911.0625,271.8906 L911.0625,273.0156 C911.0625,275.5938 913.1719,277.4844 916.0625,277.4844 C917.2813,277.4844 918.4375,277.1875 919.1875,276.6406 C919.7656,276.2344 920.0938,275.7813 920.0938,275.3906 C920.0938,274.9375 919.7031,274.5469 919.2344,274.5469 C919.0156,274.5469 918.8125,274.625 918.625,274.8125 C918.1719,275.2969 918.1719,275.2969 917.9844,275.3906 C917.5625,275.6563 916.875,275.7813 916.1094,275.7813 C914.0625,275.7813 912.7656,274.6875 912.7656,272.9844 L912.7656,271.8906 C912.7656,270.1094 914.0156,268.7969 915.75,268.7969 C916.3281,268.7969 916.9375,268.9531 917.4063,269.2031 C917.8906,269.4844 918.0625,269.7031 918.1563,270.1094 C918.2188,270.5156 918.25,270.6406 918.3906,270.7656 C918.5313,270.9063 918.7656,271.0156 918.9844,271.0156 C919.25,271.0156 919.5156,270.875 919.6875,270.6563 C919.7969,270.5 919.8281,270.3125 919.8281,269.8906 L919.8281,268.4688 C919.8281,268.0313 919.8125,267.9063 919.7188,267.75 C919.5625,267.4844 919.2813,267.3438 918.9844,267.3438 C918.6875,267.3438 918.4844,267.4375 918.2656,267.75 L918.0938,267.6719 Z " fill="#FFFFFF"/><text fill="#FFFFFF" font-family="sans-serif" font-size="14" lengthAdjust="spacing" textLength="82" x="936.25" y="276.8467">TestSismos</text><line style="stroke:#E7E7E7;stroke-width:0.5;" x1="861" x2="1061" y1="288" y2="288"/><line style="stroke:#E7E7E7;stroke-width:0.5;" x1="861" x2="1061" y1="296" y2="296"/><ellipse cx="871" cy="309.6484" fill="#84BE84" rx="3" ry="3" style="stroke:#038048;stroke-width:1.0;"/><text fill="#FFFFFF" font-family="sans-serif" font-size="14" lengthAdjust="spacing" text-decoration="underline" textLength="176" x="880" y="312.9951">main(String[] args) : void</text></g><!--class Calculate--><g id="elem_Calculate"><rect codeLine="66" fill="#313139" height="80.5938" id="Calculate" rx="2.5" ry="2.5" style="stroke:#E7E7E7;stroke-width:0.5;" width="417" x="1677.5" y="1009.5"/><ellipse cx="1848.75" cy="1025.5" fill="#2E5233" rx="11" ry="11" style="stroke:#E7E7E7;stroke-width:1.0;"/><path d="M1851.0938,1021.1719 C1850.1563,1020.7344 1849.5625,1020.5938 1848.6875,1020.5938 C1846.0625,1020.5938 1844.0625,1022.6719 1844.0625,1025.3906 L1844.0625,1026.5156 C1844.0625,1029.0938 1846.1719,1030.9844 1849.0625,1030.9844 C1850.2813,1030.9844 1851.4375,1030.6875 1852.1875,1030.1406 C1852.7656,1029.7344 1853.0938,1029.2813 1853.0938,1028.8906 C1853.0938,1028.4375 1852.7031,1028.0469 1852.2344,1028.0469 C1852.0156,1028.0469 1851.8125,1028.125 1851.625,1028.3125 C1851.1719,1028.7969 1851.1719,1028.7969 1850.9844,1028.8906 C1850.5625,1029.1563 1849.875,1029.2813 1849.1094,1029.2813 C1847.0625,1029.2813 1845.7656,1028.1875 1845.7656,1026.4844 L1845.7656,1025.3906 C1845.7656,1023.6094 1847.0156,1022.2969 1848.75,1022.2969 C1849.3281,1022.2969 1849.9375,1022.4531 1850.4063,1022.7031 C1850.8906,1022.9844 1851.0625,1023.2031 1851.1563,1023.6094 C1851.2188,1024.0156 1851.25,1024.1406 1851.3906,1024.2656 C1851.5313,1024.4063 1851.7656,1024.5156 1851.9844,1024.5156 C1852.25,1024.5156 1852.5156,1024.375 1852.6875,1024.1563 C1852.7969,1024 1852.8281,1023.8125 1852.8281,1023.3906 L1852.8281,1021.9688 C1852.8281,1021.5313 1852.8125,1021.4063 1852.7188,1021.25 C1852.5625,1020.9844 1852.2813,1020.8438 1851.9844,1020.8438 C1851.6875,1020.8438 1851.4844,1020.9375 1851.2656,1021.25 L1851.0938,1021.1719 Z " fill="#FFFFFF"/><text fill="#FFFFFF" font-family="sans-serif" font-size="14" lengthAdjust="spacing" textLength="66" x="1869.25" y="1030.3467">Calculate</text><line style="stroke:#E7E7E7;stroke-width:0.5;" x1="1678.5" x2="2093.5" y1="1041.5" y2="1041.5"/><line style="stroke:#E7E7E7;stroke-width:0.5;" x1="1678.5" x2="2093.5" y1="1049.5" y2="1049.5"/><polygon fill="#4177AF" points="1688.5,1059.1484,1684.5,1065.1484,1692.5,1065.1484" style="stroke:#1963A0;stroke-width:1.0;"/><text fill="#FFFFFF" font-family="sans-serif" font-size="14" lengthAdjust="spacing" text-decoration="underline" textLength="391" x="1697.5" y="1066.4951">porcentaje (total : int, valorNumerico : double) : String</text><text fill="#FFFFFF" font-family="sans-serif" font-size="14" lengthAdjust="spacing" text-decoration="underline" textLength="202" x="1697.5" y="1082.792">gravedadSismos () : double[]</text></g><!--class IOCreateArchive--><g id="elem_IOCreateArchive"><rect codeLine="97" fill="#313139" height="162.0781" id="IOCreateArchive" rx="2.5" ry="2.5" style="stroke:#E7E7E7;stroke-width:0.5;" width="478" x="1164" y="969"/><ellipse cx="1339.75" cy="985" fill="#2E5233" rx="11" ry="11" style="stroke:#E7E7E7;stroke-width:1.0;"/><path d="M1342.0938,980.6719 C1341.1563,980.2344 1340.5625,980.0938 1339.6875,980.0938 C1337.0625,980.0938 1335.0625,982.1719 1335.0625,984.8906 L1335.0625,986.0156 C1335.0625,988.5938 1337.1719,990.4844 1340.0625,990.4844 C1341.2813,990.4844 1342.4375,990.1875 1343.1875,989.6406 C1343.7656,989.2344 1344.0938,988.7813 1344.0938,988.3906 C1344.0938,987.9375 1343.7031,987.5469 1343.2344,987.5469 C1343.0156,987.5469 1342.8125,987.625 1342.625,987.8125 C1342.1719,988.2969 1342.1719,988.2969 1341.9844,988.3906 C1341.5625,988.6563 1340.875,988.7813 1340.1094,988.7813 C1338.0625,988.7813 1336.7656,987.6875 1336.7656,985.9844 L1336.7656,984.8906 C1336.7656,983.1094 1338.0156,981.7969 1339.75,981.7969 C1340.3281,981.7969 1340.9375,981.9531 1341.4063,982.2031 C1341.8906,982.4844 1342.0625,982.7031 1342.1563,983.1094 C1342.2188,983.5156 1342.25,983.6406 1342.3906,983.7656 C1342.5313,983.9063 1342.7656,984.0156 1342.9844,984.0156 C1343.25,984.0156 1343.5156,983.875 1343.6875,983.6563 C1343.7969,983.5 1343.8281,983.3125 1343.8281,982.8906 L1343.8281,981.4688 C1343.8281,981.0313 1343.8125,980.9063 1343.7188,980.75 C1343.5625,980.4844 1343.2813,980.3438 1342.9844,980.3438 C1342.6875,980.3438 1342.4844,980.4375 1342.2656,980.75 L1342.0938,980.6719 Z " fill="#FFFFFF"/><text fill="#FFFFFF" font-family="sans-serif" font-size="14" lengthAdjust="spacing" textLength="118" x="1360.25" y="989.8467">IOCreateArchive</text><line style="stroke:#E7E7E7;stroke-width:0.5;" x1="1165" x2="1641" y1="1001" y2="1001"/><line style="stroke:#E7E7E7;stroke-width:0.5;" x1="1165" x2="1641" y1="1009" y2="1009"/><ellipse cx="1175" cy="1022.6484" fill="#84BE84" rx="3" ry="3" style="stroke:#038048;stroke-width:1.0;"/><text fill="#FFFFFF" font-family="sans-serif" font-size="14" lengthAdjust="spacing" text-decoration="underline" textLength="433" x="1184" y="1025.9951">makeReport (tipo : TIPO, lista : DataSismos[]) : StringBuilder</text><ellipse cx="1175" cy="1038.9453" fill="#84BE84" rx="3" ry="3" style="stroke:#038048;stroke-width:1.0;"/><text fill="#FFFFFF" font-family="sans-serif" font-size="14" lengthAdjust="spacing" text-decoration="underline" textLength="382" x="1184" y="1042.292">makeJs (nombreArchivoJs : NOMBREJS) : StringBuilder</text><rect fill="#F24D5C" height="6" style="stroke:#C82930;stroke-width:1.0;" width="6" x="1172" y="1052.2422"/><text fill="#FFFFFF" font-family="sans-serif" font-size="14" lengthAdjust="spacing" text-decoration="underline" textLength="386" x="1184" y="1058.5889">makeASCIIReport (lista : DataSismos[]) : StringBuilder</text><rect fill="#F24D5C" height="6" style="stroke:#C82930;stroke-width:1.0;" width="6" x="1172" y="1068.5391"/><text fill="#FFFFFF" font-family="sans-serif" font-size="14" lengthAdjust="spacing" text-decoration="underline" textLength="397" x="1184" y="1074.8857">makeHTML5Report (lista : DataSismos[]) : StringBuilder</text><rect fill="#F24D5C" height="6" style="stroke:#C82930;stroke-width:1.0;" width="6" x="1172" y="1084.8359"/><text fill="#FFFFFF" font-family="sans-serif" font-size="14" lengthAdjust="spacing" text-decoration="underline" textLength="452" x="1184" y="1091.1826">makeHTML5GraficosReport (lista: DataSismos[]) : StringBuilder</text><rect fill="#F24D5C" height="6" style="stroke:#C82930;stroke-width:1.0;" width="6" x="1172" y="1101.1328"/><text fill="#FFFFFF" font-family="sans-serif" font-size="14" lengthAdjust="spacing" text-decoration="underline" textLength="318" x="1184" y="1107.4795">makeJavaScriptPorcentajes () : StringBuilder</text><rect fill="#F24D5C" height="6" style="stroke:#C82930;stroke-width:1.0;" width="6" x="1172" y="1117.4297"/><text fill="#FFFFFF" font-family="sans-serif" font-size="14" lengthAdjust="spacing" text-decoration="underline" textLength="288" x="1184" y="1123.7764">makeJavaScriptGraficos() : StringBuilder</text></g><!--class IOSismos--><g id="elem_IOSismos"><rect codeLine="106" fill="#313139" height="178.375" id="IOSismos" rx="2.5" ry="2.5" style="stroke:#E7E7E7;stroke-width:0.5;" width="930" x="2130" y="961"/><ellipse cx="2558.25" cy="977" fill="#2E5233" rx="11" ry="11" style="stroke:#E7E7E7;stroke-width:1.0;"/><path d="M2560.5938,972.6719 C2559.6563,972.2344 2559.0625,972.0938 2558.1875,972.0938 C2555.5625,972.0938 2553.5625,974.1719 2553.5625,976.8906 L2553.5625,978.0156 C2553.5625,980.5938 2555.6719,982.4844 2558.5625,982.4844 C2559.7813,982.4844 2560.9375,982.1875 2561.6875,981.6406 C2562.2656,981.2344 2562.5938,980.7813 2562.5938,980.3906 C2562.5938,979.9375 2562.2031,979.5469 2561.7344,979.5469 C2561.5156,979.5469 2561.3125,979.625 2561.125,979.8125 C2560.6719,980.2969 2560.6719,980.2969 2560.4844,980.3906 C2560.0625,980.6563 2559.375,980.7813 2558.6094,980.7813 C2556.5625,980.7813 2555.2656,979.6875 2555.2656,977.9844 L2555.2656,976.8906 C2555.2656,975.1094 2556.5156,973.7969 2558.25,973.7969 C2558.8281,973.7969 2559.4375,973.9531 2559.9063,974.2031 C2560.3906,974.4844 2560.5625,974.7031 2560.6563,975.1094 C2560.7188,975.5156 2560.75,975.6406 2560.8906,975.7656 C2561.0313,975.9063 2561.2656,976.0156 2561.4844,976.0156 C2561.75,976.0156 2562.0156,975.875 2562.1875,975.6563 C2562.2969,975.5 2562.3281,975.3125 2562.3281,974.8906 L2562.3281,973.4688 C2562.3281,973.0313 2562.3125,972.9063 2562.2188,972.75 C2562.0625,972.4844 2561.7813,972.3438 2561.4844,972.3438 C2561.1875,972.3438 2560.9844,972.4375 2560.7656,972.75 L2560.5938,972.6719 Z " fill="#FFFFFF"/><text fill="#FFFFFF" font-family="sans-serif" font-size="14" lengthAdjust="spacing" textLength="65" x="2578.75" y="981.8467">IOSismos</text><line style="stroke:#E7E7E7;stroke-width:0.5;" x1="2131" x2="3059" y1="993" y2="993"/><line style="stroke:#E7E7E7;stroke-width:0.5;" x1="2131" x2="3059" y1="1001" y2="1001"/><ellipse cx="2141" cy="1014.6484" fill="#84BE84" rx="3" ry="3" style="stroke:#038048;stroke-width:1.0;"/><text fill="#FFFFFF" font-family="sans-serif" font-size="14" lengthAdjust="spacing" text-decoration="underline" textLength="455" x="2150" y="1017.9951">loadDataSismos (filename : String, yearUTC : int) : DataSismos[]</text><ellipse cx="2141" cy="1030.9453" fill="#84BE84" rx="3" ry="3" style="stroke:#038048;stroke-width:1.0;"/><text fill="#FFFFFF" font-family="sans-serif" font-size="14" lengthAdjust="spacing" text-decoration="underline" textLength="455" x="2150" y="1034.292">loadDataSismos (filename : String, yearUTC : int) : DataSismos[]</text><ellipse cx="2141" cy="1047.2422" fill="#84BE84" rx="3" ry="3" style="stroke:#038048;stroke-width:1.0;"/><text fill="#FFFFFF" font-family="sans-serif" font-size="14" lengthAdjust="spacing" text-decoration="underline" textLength="625" x="2150" y="1050.5889">loadDataSismos (filename : String, yearUTCIncial : int, yearUTCFinal : int) : DataSismos[]</text><ellipse cx="2141" cy="1063.5391" fill="#84BE84" rx="3" ry="3" style="stroke:#038048;stroke-width:1.0;"/><text fill="#FFFFFF" font-family="sans-serif" font-size="14" lengthAdjust="spacing" text-decoration="underline" textLength="550" x="2150" y="1066.8857">loadDataSismos (filename : String, mes : String, yearUTC : int) : DataSismos[]</text><ellipse cx="2141" cy="1079.8359" fill="#84BE84" rx="3" ry="3" style="stroke:#038048;stroke-width:1.0;"/><text fill="#FFFFFF" font-family="sans-serif" font-size="14" lengthAdjust="spacing" text-decoration="underline" textLength="904" x="2150" y="1083.1826">loadDataSismos (filename : String, mes : String, magnitudInicial : double,  magnitudFinal : double, yearUTC : int) : DataSismos[]</text><ellipse cx="2141" cy="1096.1328" fill="#84BE84" rx="3" ry="3" style="stroke:#038048;stroke-width:1.0;"/><text fill="#FFFFFF" font-family="sans-serif" font-size="14" lengthAdjust="spacing" text-decoration="underline" textLength="616" x="2150" y="1099.4795">loadDataSismos (filename : String, day : int, mes : String, yearUTC : int) : DataSismos[]</text><ellipse cx="2141" cy="1112.4297" fill="#84BE84" rx="3" ry="3" style="stroke:#038048;stroke-width:1.0;"/><text fill="#FFFFFF" font-family="sans-serif" font-size="14" lengthAdjust="spacing" text-decoration="underline" textLength="387" x="2150" y="1115.7764">loadDataMagnitudes (filename : String) : DataSismos[]</text><rect fill="#F24D5C" height="6" style="stroke:#C82930;stroke-width:1.0;" width="6" x="2138" y="1125.7266"/><text fill="#FFFFFF" font-family="sans-serif" font-size="14" lengthAdjust="spacing" text-decoration="underline" textLength="244" x="2150" y="1132.0732">cleanString(input : String) : String</text></g><!--class ValidateDateYear--><g id="elem_ValidateDateYear"><rect codeLine="135" fill="#313139" height="96.8906" id="ValidateDateYear" rx="2.5" ry="2.5" style="stroke:#E7E7E7;stroke-width:0.5;" width="278" x="179" y="1001.5"/><ellipse cx="250.75" cy="1017.5" fill="#2E5233" rx="11" ry="11" style="stroke:#E7E7E7;stroke-width:1.0;"/><path d="M253.0938,1013.1719 C252.1563,1012.7344 251.5625,1012.5938 250.6875,1012.5938 C248.0625,1012.5938 246.0625,1014.6719 246.0625,1017.3906 L246.0625,1018.5156 C246.0625,1021.0938 248.1719,1022.9844 251.0625,1022.9844 C252.2813,1022.9844 253.4375,1022.6875 254.1875,1022.1406 C254.7656,1021.7344 255.0938,1021.2813 255.0938,1020.8906 C255.0938,1020.4375 254.7031,1020.0469 254.2344,1020.0469 C254.0156,1020.0469 253.8125,1020.125 253.625,1020.3125 C253.1719,1020.7969 253.1719,1020.7969 252.9844,1020.8906 C252.5625,1021.1563 251.875,1021.2813 251.1094,1021.2813 C249.0625,1021.2813 247.7656,1020.1875 247.7656,1018.4844 L247.7656,1017.3906 C247.7656,1015.6094 249.0156,1014.2969 250.75,1014.2969 C251.3281,1014.2969 251.9375,1014.4531 252.4063,1014.7031 C252.8906,1014.9844 253.0625,1015.2031 253.1563,1015.6094 C253.2188,1016.0156 253.25,1016.1406 253.3906,1016.2656 C253.5313,1016.4063 253.7656,1016.5156 253.9844,1016.5156 C254.25,1016.5156 254.5156,1016.375 254.6875,1016.1563 C254.7969,1016 254.8281,1015.8125 254.8281,1015.3906 L254.8281,1013.9688 C254.8281,1013.5313 254.8125,1013.4063 254.7188,1013.25 C254.5625,1012.9844 254.2813,1012.8438 253.9844,1012.8438 C253.6875,1012.8438 253.4844,1012.9375 253.2656,1013.25 L253.0938,1013.1719 Z " fill="#FFFFFF"/><text fill="#FFFFFF" font-family="sans-serif" font-size="14" lengthAdjust="spacing" textLength="126" x="271.25" y="1022.3467">ValidateDateYear</text><line style="stroke:#E7E7E7;stroke-width:0.5;" x1="180" x2="456" y1="1033.5" y2="1033.5"/><line style="stroke:#E7E7E7;stroke-width:0.5;" x1="180" x2="456" y1="1041.5" y2="1041.5"/><ellipse cx="190" cy="1055.1484" fill="#84BE84" rx="3" ry="3" style="stroke:#038048;stroke-width:1.0;"/><text fill="#FFFFFF" font-family="sans-serif" font-size="14" lengthAdjust="spacing" text-decoration="underline" textLength="252" x="199" y="1058.4951">validateYear (yearUTC : int) : String</text><ellipse cx="190" cy="1071.4453" fill="#84BE84" rx="3" ry="3" style="stroke:#038048;stroke-width:1.0;"/><text fill="#FFFFFF" font-family="sans-serif" font-size="14" lengthAdjust="spacing" text-decoration="underline" textLength="168" x="199" y="1074.792">validate (year : int) : int</text><ellipse cx="190" cy="1087.7422" fill="#84BE84" rx="3" ry="3" style="stroke:#038048;stroke-width:1.0;"/><text fill="#FFFFFF" font-family="sans-serif" font-size="14" lengthAdjust="spacing" text-decoration="underline" textLength="186" x="199" y="1091.0889">validate1 (year1 : int) : int</text></g><!--class GeneratorLog--><g id="elem_GeneratorLog"><rect codeLine="85" fill="#313139" height="64.2969" id="GeneratorLog" rx="2.5" ry="2.5" style="stroke:#E7E7E7;stroke-width:0.5;" width="335" x="793.5" y="1018"/><ellipse cx="906.75" cy="1034" fill="#2E5233" rx="11" ry="11" style="stroke:#E7E7E7;stroke-width:1.0;"/><path d="M909.0938,1029.6719 C908.1563,1029.2344 907.5625,1029.0938 906.6875,1029.0938 C904.0625,1029.0938 902.0625,1031.1719 902.0625,1033.8906 L902.0625,1035.0156 C902.0625,1037.5938 904.1719,1039.4844 907.0625,1039.4844 C908.2813,1039.4844 909.4375,1039.1875 910.1875,1038.6406 C910.7656,1038.2344 911.0938,1037.7813 911.0938,1037.3906 C911.0938,1036.9375 910.7031,1036.5469 910.2344,1036.5469 C910.0156,1036.5469 909.8125,1036.625 909.625,1036.8125 C909.1719,1037.2969 909.1719,1037.2969 908.9844,1037.3906 C908.5625,1037.6563 907.875,1037.7813 907.1094,1037.7813 C905.0625,1037.7813 903.7656,1036.6875 903.7656,1034.9844 L903.7656,1033.8906 C903.7656,1032.1094 905.0156,1030.7969 906.75,1030.7969 C907.3281,1030.7969 907.9375,1030.9531 908.4063,1031.2031 C908.8906,1031.4844 909.0625,1031.7031 909.1563,1032.1094 C909.2188,1032.5156 909.25,1032.6406 909.3906,1032.7656 C909.5313,1032.9063 909.7656,1033.0156 909.9844,1033.0156 C910.25,1033.0156 910.5156,1032.875 910.6875,1032.6563 C910.7969,1032.5 910.8281,1032.3125 910.8281,1031.8906 L910.8281,1030.4688 C910.8281,1030.0313 910.8125,1029.9063 910.7188,1029.75 C910.5625,1029.4844 910.2813,1029.3438 909.9844,1029.3438 C909.6875,1029.3438 909.4844,1029.4375 909.2656,1029.75 L909.0938,1029.6719 Z " fill="#FFFFFF"/><text fill="#FFFFFF" font-family="sans-serif" font-size="14" lengthAdjust="spacing" textLength="100" x="927.25" y="1038.8467">GeneratorLog</text><line style="stroke:#E7E7E7;stroke-width:0.5;" x1="794.5" x2="1127.5" y1="1050" y2="1050"/><line style="stroke:#E7E7E7;stroke-width:0.5;" x1="794.5" x2="1127.5" y1="1058" y2="1058"/><ellipse cx="804.5" cy="1071.6484" fill="#84BE84" rx="3" ry="3" style="stroke:#038048;stroke-width:1.0;"/><text fill="#FFFFFF" font-family="sans-serif" font-size="14" lengthAdjust="spacing" text-decoration="underline" textLength="309" x="813.5" y="1074.9951">catchLog (msg : String, level : LEVEL) : void</text></g><!--class FileDeleter--><g id="elem_FileDeleter"><rect codeLine="75" fill="#313139" height="64.2969" id="FileDeleter" rx="2.5" ry="2.5" style="stroke:#E7E7E7;stroke-width:0.5;" width="266" x="492" y="1018"/><ellipse cx="580.75" cy="1034" fill="#2E5233" rx="11" ry="11" style="stroke:#E7E7E7;stroke-width:1.0;"/><path d="M583.0938,1029.6719 C582.1563,1029.2344 581.5625,1029.0938 580.6875,1029.0938 C578.0625,1029.0938 576.0625,1031.1719 576.0625,1033.8906 L576.0625,1035.0156 C576.0625,1037.5938 578.1719,1039.4844 581.0625,1039.4844 C582.2813,1039.4844 583.4375,1039.1875 584.1875,1038.6406 C584.7656,1038.2344 585.0938,1037.7813 585.0938,1037.3906 C585.0938,1036.9375 584.7031,1036.5469 584.2344,1036.5469 C584.0156,1036.5469 583.8125,1036.625 583.625,1036.8125 C583.1719,1037.2969 583.1719,1037.2969 582.9844,1037.3906 C582.5625,1037.6563 581.875,1037.7813 581.1094,1037.7813 C579.0625,1037.7813 577.7656,1036.6875 577.7656,1034.9844 L577.7656,1033.8906 C577.7656,1032.1094 579.0156,1030.7969 580.75,1030.7969 C581.3281,1030.7969 581.9375,1030.9531 582.4063,1031.2031 C582.8906,1031.4844 583.0625,1031.7031 583.1563,1032.1094 C583.2188,1032.5156 583.25,1032.6406 583.3906,1032.7656 C583.5313,1032.9063 583.7656,1033.0156 583.9844,1033.0156 C584.25,1033.0156 584.5156,1032.875 584.6875,1032.6563 C584.7969,1032.5 584.8281,1032.3125 584.8281,1031.8906 L584.8281,1030.4688 C584.8281,1030.0313 584.8125,1029.9063 584.7188,1029.75 C584.5625,1029.4844 584.2813,1029.3438 583.9844,1029.3438 C583.6875,1029.3438 583.4844,1029.4375 583.2656,1029.75 L583.0938,1029.6719 Z " fill="#FFFFFF"/><text fill="#FFFFFF" font-family="sans-serif" font-size="14" lengthAdjust="spacing" textLength="80" x="601.25" y="1038.8467">FileDeleter</text><line style="stroke:#E7E7E7;stroke-width:0.5;" x1="493" x2="757" y1="1050" y2="1050"/><line style="stroke:#E7E7E7;stroke-width:0.5;" x1="493" x2="757" y1="1058" y2="1058"/><ellipse cx="503" cy="1071.6484" fill="#84BE84" rx="3" ry="3" style="stroke:#038048;stroke-width:1.0;"/><text fill="#FFFFFF" font-family="sans-serif" font-size="14" lengthAdjust="spacing" text-decoration="underline" textLength="240" x="512" y="1074.9951">void deleteFile (filename : String)</text></g><!--class DetectMonth--><g id="elem_DetectMonth"><rect codeLine="70" fill="#313139" height="96.8906" id="DetectMonth" rx="2.5" ry="2.5" style="stroke:#E7E7E7;stroke-width:0.5;" width="400" x="3095" y="1001.5"/><ellipse cx="3242.25" cy="1017.5" fill="#2E5233" rx="11" ry="11" style="stroke:#E7E7E7;stroke-width:1.0;"/><path d="M3244.5938,1013.1719 C3243.6563,1012.7344 3243.0625,1012.5938 3242.1875,1012.5938 C3239.5625,1012.5938 3237.5625,1014.6719 3237.5625,1017.3906 L3237.5625,1018.5156 C3237.5625,1021.0938 3239.6719,1022.9844 3242.5625,1022.9844 C3243.7813,1022.9844 3244.9375,1022.6875 3245.6875,1022.1406 C3246.2656,1021.7344 3246.5938,1021.2813 3246.5938,1020.8906 C3246.5938,1020.4375 3246.2031,1020.0469 3245.7344,1020.0469 C3245.5156,1020.0469 3245.3125,1020.125 3245.125,1020.3125 C3244.6719,1020.7969 3244.6719,1020.7969 3244.4844,1020.8906 C3244.0625,1021.1563 3243.375,1021.2813 3242.6094,1021.2813 C3240.5625,1021.2813 3239.2656,1020.1875 3239.2656,1018.4844 L3239.2656,1017.3906 C3239.2656,1015.6094 3240.5156,1014.2969 3242.25,1014.2969 C3242.8281,1014.2969 3243.4375,1014.4531 3243.9063,1014.7031 C3244.3906,1014.9844 3244.5625,1015.2031 3244.6563,1015.6094 C3244.7188,1016.0156 3244.75,1016.1406 3244.8906,1016.2656 C3245.0313,1016.4063 3245.2656,1016.5156 3245.4844,1016.5156 C3245.75,1016.5156 3246.0156,1016.375 3246.1875,1016.1563 C3246.2969,1016 3246.3281,1015.8125 3246.3281,1015.3906 L3246.3281,1013.9688 C3246.3281,1013.5313 3246.3125,1013.4063 3246.2188,1013.25 C3246.0625,1012.9844 3245.7813,1012.8438 3245.4844,1012.8438 C3245.1875,1012.8438 3244.9844,1012.9375 3244.7656,1013.25 L3244.5938,1013.1719 Z " fill="#FFFFFF"/><text fill="#FFFFFF" font-family="sans-serif" font-size="14" lengthAdjust="spacing" textLength="97" x="3262.75" y="1022.3467">DetectMonth</text><line style="stroke:#E7E7E7;stroke-width:0.5;" x1="3096" x2="3494" y1="1033.5" y2="1033.5"/><line style="stroke:#E7E7E7;stroke-width:0.5;" x1="3096" x2="3494" y1="1041.5" y2="1041.5"/><polygon fill="#4177AF" points="3106,1051.1484,3102,1057.1484,3110,1057.1484" style="stroke:#1963A0;stroke-width:1.0;"/><text fill="#FFFFFF" font-family="sans-serif" font-size="14" lengthAdjust="spacing" text-decoration="underline" textLength="250" x="3115" y="1058.4951">validationMonth (mes : String) : int</text><polygon fill="#4177AF" points="3106,1067.4453,3102,1073.4453,3110,1073.4453" style="stroke:#1963A0;stroke-width:1.0;"/><text fill="#FFFFFF" font-family="sans-serif" font-size="14" lengthAdjust="spacing" text-decoration="underline" textLength="275" x="3115" y="1074.792">monthToNum (numMonth : int) :String</text><ellipse cx="3106" cy="1087.7422" fill="#84BE84" rx="3" ry="3" style="stroke:#038048;stroke-width:1.0;"/><text fill="#FFFFFF" font-family="sans-serif" font-size="14" lengthAdjust="spacing" text-decoration="underline" textLength="374" x="3115" y="1091.0889">validationMonthTrueFalse (month : String) : boolean</text></g><!--class TextUTP--><g id="elem_TextUTP"><rect codeLine="120" fill="#313139" height="259.8594" id="TextUTP" rx="2.5" ry="2.5" style="stroke:#E7E7E7;stroke-width:0.5;" width="630" x="2280" y="1199"/><ellipse cx="2560.75" cy="1215" fill="#2E5233" rx="11" ry="11" style="stroke:#E7E7E7;stroke-width:1.0;"/><path d="M2563.0938,1210.6719 C2562.1563,1210.2344 2561.5625,1210.0938 2560.6875,1210.0938 C2558.0625,1210.0938 2556.0625,1212.1719 2556.0625,1214.8906 L2556.0625,1216.0156 C2556.0625,1218.5938 2558.1719,1220.4844 2561.0625,1220.4844 C2562.2813,1220.4844 2563.4375,1220.1875 2564.1875,1219.6406 C2564.7656,1219.2344 2565.0938,1218.7813 2565.0938,1218.3906 C2565.0938,1217.9375 2564.7031,1217.5469 2564.2344,1217.5469 C2564.0156,1217.5469 2563.8125,1217.625 2563.625,1217.8125 C2563.1719,1218.2969 2563.1719,1218.2969 2562.9844,1218.3906 C2562.5625,1218.6563 2561.875,1218.7813 2561.1094,1218.7813 C2559.0625,1218.7813 2557.7656,1217.6875 2557.7656,1215.9844 L2557.7656,1214.8906 C2557.7656,1213.1094 2559.0156,1211.7969 2560.75,1211.7969 C2561.3281,1211.7969 2561.9375,1211.9531 2562.4063,1212.2031 C2562.8906,1212.4844 2563.0625,1212.7031 2563.1563,1213.1094 C2563.2188,1213.5156 2563.25,1213.6406 2563.3906,1213.7656 C2563.5313,1213.9063 2563.7656,1214.0156 2563.9844,1214.0156 C2564.25,1214.0156 2564.5156,1213.875 2564.6875,1213.6563 C2564.7969,1213.5 2564.8281,1213.3125 2564.8281,1212.8906 L2564.8281,1211.4688 C2564.8281,1211.0313 2564.8125,1210.9063 2564.7188,1210.75 C2564.5625,1210.4844 2564.2813,1210.3438 2563.9844,1210.3438 C2563.6875,1210.3438 2563.4844,1210.4375 2563.2656,1210.75 L2563.0938,1210.6719 Z " fill="#FFFFFF"/><text fill="#FFFFFF" font-family="sans-serif" font-size="14" lengthAdjust="spacing" textLength="60" x="2581.25" y="1219.8467">TextUTP</text><line style="stroke:#E7E7E7;stroke-width:0.5;" x1="2281" x2="2909" y1="1231" y2="1231"/><line style="stroke:#E7E7E7;stroke-width:0.5;" x1="2281" x2="2909" y1="1239" y2="1239"/><ellipse cx="2291" cy="1252.6484" fill="#84BE84" rx="3" ry="3" style="stroke:#038048;stroke-width:1.0;"/><text fill="#FFFFFF" font-family="sans-serif" font-size="14" lengthAdjust="spacing" text-decoration="underline" textLength="223" x="2300" y="1255.9951">read (filename : String) : String</text><ellipse cx="2291" cy="1268.9453" fill="#84BE84" rx="3" ry="3" style="stroke:#038048;stroke-width:1.0;"/><text fill="#FFFFFF" font-family="sans-serif" font-size="14" lengthAdjust="spacing" text-decoration="underline" textLength="361" x="2300" y="1272.292">readlines (filename : String, os : OS) : List&lt;String&gt;</text><ellipse cx="2291" cy="1285.2422" fill="#84BE84" rx="3" ry="3" style="stroke:#038048;stroke-width:1.0;"/><text fill="#FFFFFF" font-family="sans-serif" font-size="14" lengthAdjust="spacing" text-decoration="underline" textLength="304" x="2300" y="1288.5889">readlines (filename : String) : List&lt;String&gt;</text><ellipse cx="2291" cy="1301.5391" fill="#84BE84" rx="3" ry="3" style="stroke:#038048;stroke-width:1.0;"/><text fill="#FFFFFF" font-family="sans-serif" font-size="14" lengthAdjust="spacing" text-decoration="underline" textLength="378" x="2300" y="1304.8857">readlinesAsArray (filename : String, os : OS) : String[]</text><ellipse cx="2291" cy="1317.8359" fill="#84BE84" rx="3" ry="3" style="stroke:#038048;stroke-width:1.0;"/><text fill="#FFFFFF" font-family="sans-serif" font-size="14" lengthAdjust="spacing" text-decoration="underline" textLength="321" x="2300" y="1321.1826">readlinesAsArray (filename : String) : String[]</text><rect fill="#F24D5C" height="6" style="stroke:#C82930;stroke-width:1.0;" width="6" x="2288" y="1331.1328"/><text fill="#FFFFFF" font-family="sans-serif" font-size="14" lengthAdjust="spacing" text-decoration="underline" textLength="344" x="2300" y="1337.4795">writeText (data : byte[], filename : String) : void</text><ellipse cx="2291" cy="1350.4297" fill="#84BE84" rx="3" ry="3" style="stroke:#038048;stroke-width:1.0;"/><text fill="#FFFFFF" font-family="sans-serif" font-size="14" lengthAdjust="spacing" text-decoration="underline" textLength="329" x="2300" y="1353.7764">append (data : String, filename : String) : void</text><ellipse cx="2291" cy="1366.7266" fill="#84BE84" rx="3" ry="3" style="stroke:#038048;stroke-width:1.0;"/><text fill="#FFFFFF" font-family="sans-serif" font-size="14" lengthAdjust="spacing" text-decoration="underline" textLength="566" x="2300" y="1370.0732">append (data : String[], filename : String, withNewLine : boolean, os : OS) : void</text><ellipse cx="2291" cy="1383.0234" fill="#84BE84" rx="3" ry="3" style="stroke:#038048;stroke-width:1.0;"/><text fill="#FFFFFF" font-family="sans-serif" font-size="14" lengthAdjust="spacing" text-decoration="underline" textLength="509" x="2300" y="1386.3701">append (data : String[], filename : String, withNewLine : boolean) : void</text><ellipse cx="2291" cy="1399.3203" fill="#84BE84" rx="3" ry="3" style="stroke:#038048;stroke-width:1.0;"/><text fill="#FFFFFF" font-family="sans-serif" font-size="14" lengthAdjust="spacing" text-decoration="underline" textLength="339" x="2300" y="1402.667">append (data : String[], filename : String) : void</text><ellipse cx="2291" cy="1415.6172" fill="#84BE84" rx="3" ry="3" style="stroke:#038048;stroke-width:1.0;"/><text fill="#FFFFFF" font-family="sans-serif" font-size="14" lengthAdjust="spacing" text-decoration="underline" textLength="604" x="2300" y="1418.9639">append (data : List&lt;String&gt;, filename : String, withNewLine : boolean, os : OS) : void</text><ellipse cx="2291" cy="1431.9141" fill="#84BE84" rx="3" ry="3" style="stroke:#038048;stroke-width:1.0;"/><text fill="#FFFFFF" font-family="sans-serif" font-size="14" lengthAdjust="spacing" text-decoration="underline" textLength="547" x="2300" y="1435.2607">append (data : List&lt;String&gt;, filename : String, withNewLine : boolean) : void</text><ellipse cx="2291" cy="1448.2109" fill="#84BE84" rx="3" ry="3" style="stroke:#038048;stroke-width:1.0;"/><text fill="#FFFFFF" font-family="sans-serif" font-size="14" lengthAdjust="spacing" text-decoration="underline" textLength="377" x="2300" y="1451.5576">append (data : List&lt;String&gt;, filename : String) : void</text></g><!--class OS--><g id="elem_OS"><rect codeLine="116" fill="#313139" height="80.5938" id="OS" rx="2.5" ry="2.5" style="stroke:#E7E7E7;stroke-width:0.5;" width="85" x="2552.5" y="1519"/><ellipse cx="2582.35" cy="1535" fill="#852D19" rx="11" ry="11" style="stroke:#E7E7E7;stroke-width:1.0;"/><path d="M2581.1469,1535.875 L2582.6,1535.875 L2582.6,1535.9844 C2582.6,1536.3906 2582.6313,1536.5469 2582.7094,1536.7031 C2582.8656,1536.9531 2583.1469,1537.1094 2583.4438,1537.1094 C2583.6938,1537.1094 2583.9594,1536.9688 2584.1156,1536.75 C2584.2406,1536.5938 2584.2719,1536.4375 2584.2719,1535.9844 L2584.2719,1534.0625 C2584.2719,1533.9063 2584.2719,1533.8594 2584.2563,1533.7031 C2584.1938,1533.2344 2583.8813,1532.9219 2583.4281,1532.9219 C2583.1781,1532.9219 2582.9125,1533.0625 2582.7406,1533.2813 C2582.6313,1533.4531 2582.6,1533.6094 2582.6,1534.0625 L2582.6,1534.1875 L2581.1469,1534.1875 L2581.1469,1531.7813 L2585.1313,1531.7813 L2585.1313,1532.6406 C2585.1313,1533.0469 2585.1625,1533.2188 2585.2406,1533.375 C2585.4125,1533.625 2585.6938,1533.7813 2585.975,1533.7813 C2586.2406,1533.7813 2586.5063,1533.6406 2586.6781,1533.4219 C2586.7875,1533.25 2586.8188,1533.1094 2586.8188,1532.6406 L2586.8188,1530.0938 L2579.1938,1530.0938 C2578.7563,1530.0938 2578.6313,1530.1094 2578.475,1530.2031 C2578.225,1530.3594 2578.0688,1530.6563 2578.0688,1530.9375 C2578.0688,1531.2188 2578.2094,1531.4688 2578.4281,1531.6406 C2578.5844,1531.75 2578.7719,1531.7813 2579.1938,1531.7813 L2579.4438,1531.7813 L2579.4438,1538.2969 L2579.1938,1538.2969 C2578.7875,1538.2969 2578.6313,1538.3125 2578.475,1538.4219 C2578.225,1538.5938 2578.0688,1538.8594 2578.0688,1539.1563 C2578.0688,1539.4219 2578.2094,1539.6719 2578.4281,1539.8281 C2578.5688,1539.9531 2578.8031,1540 2579.1938,1540 L2587.1938,1540 L2587.1938,1537.4219 C2587.1938,1536.9844 2587.1625,1536.8438 2587.0844,1536.6875 C2586.9125,1536.4375 2586.6313,1536.2813 2586.35,1536.2813 C2586.0844,1536.2813 2585.8188,1536.3906 2585.6469,1536.6406 C2585.5375,1536.7969 2585.5063,1536.9375 2585.5063,1537.4219 L2585.5063,1538.2969 L2581.1469,1538.2969 L2581.1469,1535.875 Z " fill="#FFFFFF"/><text fill="#FFFFFF" font-family="sans-serif" font-size="14" lengthAdjust="spacing" textLength="20" x="2599.65" y="1539.8467">OS</text><line style="stroke:#E7E7E7;stroke-width:0.5;" x1="2553.5" x2="2636.5" y1="1551" y2="1551"/><text fill="#FFFFFF" font-family="sans-serif" font-size="14" lengthAdjust="spacing" textLength="73" x="2558.5" y="1567.9951">WINDOWS</text><text fill="#FFFFFF" font-family="sans-serif" font-size="14" lengthAdjust="spacing" textLength="41" x="2558.5" y="1584.292">LINUX</text><line style="stroke:#E7E7E7;stroke-width:0.5;" x1="2553.5" x2="2636.5" y1="1591.5938" y2="1591.5938"/></g><!--class LEVEL--><g id="elem_LEVEL"><rect codeLine="78" fill="#313139" height="129.4844" id="LEVEL" rx="2.5" ry="2.5" style="stroke:#E7E7E7;stroke-width:0.5;" width="76" x="923" y="1264.5"/><ellipse cx="938" cy="1280.5" fill="#852D19" rx="11" ry="11" style="stroke:#E7E7E7;stroke-width:1.0;"/><path d="M936.7969,1281.375 L938.25,1281.375 L938.25,1281.4844 C938.25,1281.8906 938.2813,1282.0469 938.3594,1282.2031 C938.5156,1282.4531 938.7969,1282.6094 939.0938,1282.6094 C939.3438,1282.6094 939.6094,1282.4688 939.7656,1282.25 C939.8906,1282.0938 939.9219,1281.9375 939.9219,1281.4844 L939.9219,1279.5625 C939.9219,1279.4063 939.9219,1279.3594 939.9063,1279.2031 C939.8438,1278.7344 939.5313,1278.4219 939.0781,1278.4219 C938.8281,1278.4219 938.5625,1278.5625 938.3906,1278.7813 C938.2813,1278.9531 938.25,1279.1094 938.25,1279.5625 L938.25,1279.6875 L936.7969,1279.6875 L936.7969,1277.2813 L940.7813,1277.2813 L940.7813,1278.1406 C940.7813,1278.5469 940.8125,1278.7188 940.8906,1278.875 C941.0625,1279.125 941.3438,1279.2813 941.625,1279.2813 C941.8906,1279.2813 942.1563,1279.1406 942.3281,1278.9219 C942.4375,1278.75 942.4688,1278.6094 942.4688,1278.1406 L942.4688,1275.5938 L934.8438,1275.5938 C934.4063,1275.5938 934.2813,1275.6094 934.125,1275.7031 C933.875,1275.8594 933.7188,1276.1563 933.7188,1276.4375 C933.7188,1276.7188 933.8594,1276.9688 934.0781,1277.1406 C934.2344,1277.25 934.4219,1277.2813 934.8438,1277.2813 L935.0938,1277.2813 L935.0938,1283.7969 L934.8438,1283.7969 C934.4375,1283.7969 934.2813,1283.8125 934.125,1283.9219 C933.875,1284.0938 933.7188,1284.3594 933.7188,1284.6563 C933.7188,1284.9219 933.8594,1285.1719 934.0781,1285.3281 C934.2188,1285.4531 934.4531,1285.5 934.8438,1285.5 L942.8438,1285.5 L942.8438,1282.9219 C942.8438,1282.4844 942.8125,1282.3438 942.7344,1282.1875 C942.5625,1281.9375 942.2813,1281.7813 942,1281.7813 C941.7344,1281.7813 941.4688,1281.8906 941.2969,1282.1406 C941.1875,1282.2969 941.1563,1282.4375 941.1563,1282.9219 L941.1563,1283.7969 L936.7969,1283.7969 L936.7969,1281.375 Z " fill="#FFFFFF"/><text fill="#FFFFFF" font-family="sans-serif" font-size="14" lengthAdjust="spacing" textLength="44" x="952" y="1285.3467">LEVEL</text><line style="stroke:#E7E7E7;stroke-width:0.5;" x1="924" x2="998" y1="1296.5" y2="1296.5"/><text fill="#FFFFFF" font-family="sans-serif" font-size="14" lengthAdjust="spacing" textLength="50" x="929" y="1313.4951">DEBUG</text><text fill="#FFFFFF" font-family="sans-serif" font-size="14" lengthAdjust="spacing" textLength="33" x="929" y="1329.792">INFO</text><text fill="#FFFFFF" font-family="sans-serif" font-size="14" lengthAdjust="spacing" textLength="44" x="929" y="1346.0889">WARN</text><text fill="#FFFFFF" font-family="sans-serif" font-size="14" lengthAdjust="spacing" textLength="50" x="929" y="1362.3857">ERROR</text><text fill="#FFFFFF" font-family="sans-serif" font-size="14" lengthAdjust="spacing" textLength="45" x="929" y="1378.6826">FATAL</text><line style="stroke:#E7E7E7;stroke-width:0.5;" x1="924" x2="998" y1="1385.9844" y2="1385.9844"/></g><!--class TIPO--><g id="elem_TIPO"><rect codeLine="88" fill="#313139" height="96.8906" id="TIPO" rx="2.5" ry="2.5" style="stroke:#E7E7E7;stroke-width:0.5;" width="133" x="1415.5" y="1280.5"/><ellipse cx="1461.25" cy="1296.5" fill="#852D19" rx="11" ry="11" style="stroke:#E7E7E7;stroke-width:1.0;"/><path d="M1460.0469,1297.375 L1461.5,1297.375 L1461.5,1297.4844 C1461.5,1297.8906 1461.5313,1298.0469 1461.6094,1298.2031 C1461.7656,1298.4531 1462.0469,1298.6094 1462.3438,1298.6094 C1462.5938,1298.6094 1462.8594,1298.4688 1463.0156,1298.25 C1463.1406,1298.0938 1463.1719,1297.9375 1463.1719,1297.4844 L1463.1719,1295.5625 C1463.1719,1295.4063 1463.1719,1295.3594 1463.1563,1295.2031 C1463.0938,1294.7344 1462.7813,1294.4219 1462.3281,1294.4219 C1462.0781,1294.4219 1461.8125,1294.5625 1461.6406,1294.7813 C1461.5313,1294.9531 1461.5,1295.1094 1461.5,1295.5625 L1461.5,1295.6875 L1460.0469,1295.6875 L1460.0469,1293.2813 L1464.0313,1293.2813 L1464.0313,1294.1406 C1464.0313,1294.5469 1464.0625,1294.7188 1464.1406,1294.875 C1464.3125,1295.125 1464.5938,1295.2813 1464.875,1295.2813 C1465.1406,1295.2813 1465.4063,1295.1406 1465.5781,1294.9219 C1465.6875,1294.75 1465.7188,1294.6094 1465.7188,1294.1406 L1465.7188,1291.5938 L1458.0938,1291.5938 C1457.6563,1291.5938 1457.5313,1291.6094 1457.375,1291.7031 C1457.125,1291.8594 1456.9688,1292.1563 1456.9688,1292.4375 C1456.9688,1292.7188 1457.1094,1292.9688 1457.3281,1293.1406 C1457.4844,1293.25 1457.6719,1293.2813 1458.0938,1293.2813 L1458.3438,1293.2813 L1458.3438,1299.7969 L1458.0938,1299.7969 C1457.6875,1299.7969 1457.5313,1299.8125 1457.375,1299.9219 C1457.125,1300.0938 1456.9688,1300.3594 1456.9688,1300.6563 C1456.9688,1300.9219 1457.1094,1301.1719 1457.3281,1301.3281 C1457.4688,1301.4531 1457.7031,1301.5 1458.0938,1301.5 L1466.0938,1301.5 L1466.0938,1298.9219 C1466.0938,1298.4844 1466.0625,1298.3438 1465.9844,1298.1875 C1465.8125,1297.9375 1465.5313,1297.7813 1465.25,1297.7813 C1464.9844,1297.7813 1464.7188,1297.8906 1464.5469,1298.1406 C1464.4375,1298.2969 1464.4063,1298.4375 1464.4063,1298.9219 L1464.4063,1299.7969 L1460.0469,1299.7969 L1460.0469,1297.375 Z " fill="#FFFFFF"/><text fill="#FFFFFF" font-family="sans-serif" font-size="14" lengthAdjust="spacing" textLength="33" x="1481.75" y="1301.3467">TIPO</text><line style="stroke:#E7E7E7;stroke-width:0.5;" x1="1416.5" x2="1547.5" y1="1312.5" y2="1312.5"/><text fill="#FFFFFF" font-family="sans-serif" font-size="14" lengthAdjust="spacing" textLength="37" x="1421.5" y="1329.4951">ASCII</text><text fill="#FFFFFF" font-family="sans-serif" font-size="14" lengthAdjust="spacing" textLength="48" x="1421.5" y="1345.792">HTML5</text><text fill="#FFFFFF" font-family="sans-serif" font-size="14" lengthAdjust="spacing" textLength="121" x="1421.5" y="1362.0889">HTML5GRAFICOS</text><line style="stroke:#E7E7E7;stroke-width:0.5;" x1="1416.5" x2="1547.5" y1="1369.3906" y2="1369.3906"/></g><!--class NOMBREJS--><g id="elem_NOMBREJS"><rect codeLine="93" fill="#313139" height="80.5938" id="NOMBREJS" rx="2.5" ry="2.5" style="stroke:#E7E7E7;stroke-width:0.5;" width="112" x="1268" y="1288.5"/><ellipse cx="1285.25" cy="1304.5" fill="#852D19" rx="11" ry="11" style="stroke:#E7E7E7;stroke-width:1.0;"/><path d="M1284.0469,1305.375 L1285.5,1305.375 L1285.5,1305.4844 C1285.5,1305.8906 1285.5313,1306.0469 1285.6094,1306.2031 C1285.7656,1306.4531 1286.0469,1306.6094 1286.3438,1306.6094 C1286.5938,1306.6094 1286.8594,1306.4688 1287.0156,1306.25 C1287.1406,1306.0938 1287.1719,1305.9375 1287.1719,1305.4844 L1287.1719,1303.5625 C1287.1719,1303.4063 1287.1719,1303.3594 1287.1563,1303.2031 C1287.0938,1302.7344 1286.7813,1302.4219 1286.3281,1302.4219 C1286.0781,1302.4219 1285.8125,1302.5625 1285.6406,1302.7813 C1285.5313,1302.9531 1285.5,1303.1094 1285.5,1303.5625 L1285.5,1303.6875 L1284.0469,1303.6875 L1284.0469,1301.2813 L1288.0313,1301.2813 L1288.0313,1302.1406 C1288.0313,1302.5469 1288.0625,1302.7188 1288.1406,1302.875 C1288.3125,1303.125 1288.5938,1303.2813 1288.875,1303.2813 C1289.1406,1303.2813 1289.4063,1303.1406 1289.5781,1302.9219 C1289.6875,1302.75 1289.7188,1302.6094 1289.7188,1302.1406 L1289.7188,1299.5938 L1282.0938,1299.5938 C1281.6563,1299.5938 1281.5313,1299.6094 1281.375,1299.7031 C1281.125,1299.8594 1280.9688,1300.1563 1280.9688,1300.4375 C1280.9688,1300.7188 1281.1094,1300.9688 1281.3281,1301.1406 C1281.4844,1301.25 1281.6719,1301.2813 1282.0938,1301.2813 L1282.3438,1301.2813 L1282.3438,1307.7969 L1282.0938,1307.7969 C1281.6875,1307.7969 1281.5313,1307.8125 1281.375,1307.9219 C1281.125,1308.0938 1280.9688,1308.3594 1280.9688,1308.6563 C1280.9688,1308.9219 1281.1094,1309.1719 1281.3281,1309.3281 C1281.4688,1309.4531 1281.7031,1309.5 1282.0938,1309.5 L1290.0938,1309.5 L1290.0938,1306.9219 C1290.0938,1306.4844 1290.0625,1306.3438 1289.9844,1306.1875 C1289.8125,1305.9375 1289.5313,1305.7813 1289.25,1305.7813 C1288.9844,1305.7813 1288.7188,1305.8906 1288.5469,1306.1406 C1288.4375,1306.2969 1288.4063,1306.4375 1288.4063,1306.9219 L1288.4063,1307.7969 L1284.0469,1307.7969 L1284.0469,1305.375 Z " fill="#FFFFFF"/><text fill="#FFFFFF" font-family="sans-serif" font-size="14" lengthAdjust="spacing" textLength="75" x="1299.75" y="1309.3467">NOMBREJS</text><line style="stroke:#E7E7E7;stroke-width:0.5;" x1="1269" x2="1379" y1="1320.5" y2="1320.5"/><text fill="#FFFFFF" font-family="sans-serif" font-size="14" lengthAdjust="spacing" textLength="73" x="1274" y="1337.4951">GRAFICOS</text><text fill="#FFFFFF" font-family="sans-serif" font-size="14" lengthAdjust="spacing" textLength="100" x="1274" y="1353.792">PORCENTAJES</text><line style="stroke:#E7E7E7;stroke-width:0.5;" x1="1269" x2="1379" y1="1361.0938" y2="1361.0938"/></g><!--link DatasSismos to Calculate--><g id="link_DatasSismos_Calculate"><path codeLine="5" d="M1886,901.019 C1886,940.689 1886,977.304 1886,1004.188 " fill="none" id="DatasSismos-to-Calculate" style="stroke:#E7E7E7;stroke-width:1.0;"/><polygon fill="#E7E7E7" points="1886,1009.433,1890,1000.433,1886,1004.433,1882,1000.433,1886,1009.433" style="stroke:#E7E7E7;stroke-width:1.0;"/></g><!--link DatasSismos to IOCreateArchive--><g id="link_DatasSismos_IOCreateArchive"><path codeLine="6" d="M1578.4,901.019 C1551.18,923.982 1525.18,945.922 1501.92,965.543 " fill="none" id="DatasSismos-to-IOCreateArchive" style="stroke:#E7E7E7;stroke-width:1.0;"/><polygon fill="#E7E7E7" points="1497.91,968.925,1507.3663,966.1722,1501.7294,965.6982,1502.2034,960.0612,1497.91,968.925" style="stroke:#E7E7E7;stroke-width:1.0;"/></g><!--link DatasSismos to IOSismos--><g id="link_DatasSismos_IOSismos"><path codeLine="7" d="M2337.53,901.019 C2372.62,921.185 2406.33,940.561 2437.14,958.27 " fill="none" id="DatasSismos-to-IOSismos" style="stroke:#E7E7E7;stroke-width:1.0;"/><polygon fill="#E7E7E7" points="2441.67,960.871,2435.8516,952.9245,2437.3323,958.3842,2431.8727,959.8648,2441.67,960.871" style="stroke:#E7E7E7;stroke-width:1.0;"/></g><!--reverse link AppReportSismos to ValidateDateYear--><g id="link_AppReportSismos_ValidateDateYear"><path codeLine="8" d="M1486.5,295.48 C1274.8,309.09 816.121,342.51 755,380 C510.206,530.14 375.569,874.884 332.996,1001.355 " fill="none" id="AppReportSismos-backto-ValidateDateYear" style="stroke:#E7E7E7;stroke-width:1.0;"/><polygon fill="#E7E7E7" points="1491.77,295.14,1482.5271,291.7388,1486.7808,295.4679,1483.0517,299.7215,1491.77,295.14" style="stroke:#E7E7E7;stroke-width:1.0;"/></g><!--reverse link AppReportSismos to DatasSismos--><g id="link_AppReportSismos_DatasSismos"><path codeLine="9" d="M1622.49,324.27 C1635.16,339.44 1651.18,358.59 1669.02,379.94 " fill="none" id="AppReportSismos-backto-DatasSismos" style="stroke:#E7E7E7;stroke-width:1.0;"/><polygon fill="#E7E7E7" points="1619,320.1,1621.7027,329.5708,1622.2066,323.9364,1627.8409,324.4403,1619,320.1" style="stroke:#E7E7E7;stroke-width:1.0;"/></g><!--reverse link AppReportSismos to GeneratorLog--><g id="link_AppReportSismos_GeneratorLog"><path codeLine="10" d="M1486.59,291.57 C1409.05,298.78 1305.94,320.15 1237,380 C1032.29,557.7 976.596,911.046 964.142,1017.765 " fill="none" id="AppReportSismos-backto-GeneratorLog" style="stroke:#E7E7E7;stroke-width:1.0;"/><polygon fill="#E7E7E7" points="1491.66,291.11,1482.3406,287.9243,1486.6797,291.5536,1483.0504,295.8928,1491.66,291.11" style="stroke:#E7E7E7;stroke-width:1.0;"/></g><!--reverse link AppReportSismos to IOCreateArchive--><g id="link_AppReportSismos_IOCreateArchive"><path codeLine="11" d="M1486.76,295.23 C1427.36,304.81 1357.86,327.47 1320,380 C1184.61,567.85 1261.47,676.96 1320,901 C1326.07,924.23 1336.69,947.669 1348.34,968.829 " fill="none" id="AppReportSismos-backto-IOCreateArchive" style="stroke:#E7E7E7;stroke-width:1.0;"/><polygon fill="#E7E7E7" points="1491.74,294.45,1482.2308,291.8857,1486.7998,295.221,1483.4645,299.79,1491.74,294.45" style="stroke:#E7E7E7;stroke-width:1.0;"/></g><!--reverse link AppReportSismos to IOSismos--><g id="link_AppReportSismos_IOSismos"><path codeLine="12" d="M1699.47,292.38 C1927.11,300.63 2445.13,325.27 2502,380 C2659.37,531.44 2636.98,816.636 2613.1,960.8 " fill="none" id="AppReportSismos-backto-IOSismos" style="stroke:#E7E7E7;stroke-width:1.0;"/><polygon fill="#E7E7E7" points="1694.15,292.19,1702.9953,296.5213,1699.1466,292.3756,1703.2923,288.5268,1694.15,292.19" style="stroke:#E7E7E7;stroke-width:1.0;"/></g><!--reverse link AppReportSismos to FileDeleter--><g id="link_AppReportSismos_FileDeleter"><path codeLine="13" d="M1486.29,292.33 C1331.6,299.2 1055.13,319.75 978,380 C780.595,534.21 898.369,690.23 763,901 C734.143,945.931 690.903,989.682 660.533,1017.815 " fill="none" id="AppReportSismos-backto-FileDeleter" style="stroke:#E7E7E7;stroke-width:1.0;"/><polygon fill="#E7E7E7" points="1491.74,292.09,1482.577,288.479,1486.7446,292.3041,1482.9195,296.4717,1491.74,292.09" style="stroke:#E7E7E7;stroke-width:1.0;"/></g><!--reverse link AppReportSismos to DetectMonth--><g id="link_AppReportSismos_DetectMonth"><path codeLine="14" d="M1699.29,290.29 C1919.92,294.35 2419.83,311.11 2574,380 C2897.1,524.39 3169.6,873.456 3261.67,1001.167 " fill="none" id="AppReportSismos-backto-DetectMonth" style="stroke:#E7E7E7;stroke-width:1.0;"/><polygon fill="#E7E7E7" points="1694.14,290.2,1703.0582,294.3792,1699.139,290.3,1703.2182,286.3808,1694.14,290.2" style="stroke:#E7E7E7;stroke-width:1.0;"/></g><!--reverse link AppReportSismos to TextUTP--><g id="link_AppReportSismos_TextUTP"><path codeLine="15" d="M1699.25,292.65 C1988.83,303.13 2777.55,335.46 2886,380 C3225.66,519.5 3359.65,584.36 3513,918 C3554.02,1007.247 3575.06,1062.865 3513,1139 C3437.31,1231.861 3144.97,1280.426 2910.26,1304.93 " fill="none" id="AppReportSismos-backto-TextUTP" style="stroke:#E7E7E7;stroke-width:1.0;"/><polygon fill="#E7E7E7" points="1694.18,292.47,1703.0253,296.8013,1699.1766,292.6556,1703.3223,288.8068,1694.18,292.47" style="stroke:#E7E7E7;stroke-width:1.0;"/></g><!--reverse link TestSismos to ValidateDateYear--><g id="link_TestSismos_ValidateDateYear"><path codeLine="16" d="M854.809,291.91 C711.815,298.17 468.289,317.91 408,380 C240.227,552.77 283.814,879.257 307.539,1001.341 " fill="none" id="TestSismos-backto-ValidateDateYear" style="stroke:#E7E7E7;stroke-width:1.0;"/><polygon fill="#E7E7E7" points="859.853,291.69,850.6885,288.0828,854.8577,291.9061,851.0343,296.0753,859.853,291.69" style="stroke:#E7E7E7;stroke-width:1.0;"/></g><!--reverse link TestSismos to DatasSismos--><g id="link_TestSismos_DatasSismos"><path codeLine="17" d="M1054.66,321.75 C1102.96,338.81 1162.76,360.19 1216,380 C1255.46,394.68 1296.16,410 1337.08,425.53 " fill="none" id="TestSismos-backto-DatasSismos" style="stroke:#E7E7E7;stroke-width:1.0;"/><polygon fill="#E7E7E7" points="1049.72,320.01,1056.866,326.7875,1054.4326,321.6808,1059.5393,319.2474,1049.72,320.01" style="stroke:#E7E7E7;stroke-width:1.0;"/></g><!--reverse link TestSismos to IOSismos--><g id="link_TestSismos_IOSismos"><path codeLine="18" d="M1067.47,295.44 C1408.42,316.08 2451.22,379.24 2452,380 C2535.29,461.06 2459.88,791.199 2498,901 C2505.1,921.461 2515.65,941.877 2527.21,960.72 " fill="none" id="TestSismos-backto-IOSismos" style="stroke:#E7E7E7;stroke-width:1.0;"/><polygon fill="#E7E7E7" points="1062.25,295.13,1070.9935,299.6633,1067.241,295.4303,1071.474,291.6778,1062.25,295.13" style="stroke:#E7E7E7;stroke-width:1.0;"/></g><!--reverse link TestSismos to IOCreateArchive--><g id="link_TestSismos_IOCreateArchive"><path codeLine="19" d="M971.346,324.88 C1001.01,423.72 1093.56,705.57 1237,901 C1254.71,925.123 1276.9,948.204 1299.25,968.663 " fill="none" id="TestSismos-backto-IOCreateArchive" style="stroke:#E7E7E7;stroke-width:1.0;"/><polygon fill="#E7E7E7" points="969.897,320.03,968.662,329.8011,971.3387,324.8176,976.3222,327.4944,969.897,320.03" style="stroke:#E7E7E7;stroke-width:1.0;"/></g><!--reverse link TestSismos to FileDeleter--><g id="link_TestSismos_FileDeleter"><path codeLine="20" d="M909.334,323.23 C889.43,338.59 867.918,358.17 853,380 C705.176,596.29 645.337,917.123 629.543,1017.69 " fill="none" id="TestSismos-backto-FileDeleter" style="stroke:#E7E7E7;stroke-width:1.0;"/><polygon fill="#E7E7E7" points="913.554,320.02,903.968,322.2802,909.5729,323.0451,908.8081,328.65,913.554,320.02" style="stroke:#E7E7E7;stroke-width:1.0;"/></g><!--reverse link TestSismos to TextUTP--><g id="link_TestSismos_TextUTP"><path codeLine="21" d="M854.701,288.73 C683.855,290.6 358.997,304.32 277,380 C151.616,495.72 42.9517,1015.803 161,1139 C215.053,1195.41 1488.15,1192.469 1566,1199 C1806.19,1219.15 2076.57,1253.504 2279.88,1281.695 " fill="none" id="TestSismos-backto-TextUTP" style="stroke:#E7E7E7;stroke-width:1.0;"/><polygon fill="#E7E7E7" points="859.71,288.68,850.6693,284.7728,854.7103,288.7314,850.7516,292.7724,859.71,288.68" style="stroke:#E7E7E7;stroke-width:1.0;"/></g><!--reverse link TestSismos to GeneratorLog--><g id="link_TestSismos_GeneratorLog"><path codeLine="22" d="M961,325.44 C961,455.68 961,896.733 961,1017.949 " fill="none" id="TestSismos-backto-GeneratorLog" style="stroke:#E7E7E7;stroke-width:1.0;"/><polygon fill="#E7E7E7" points="961,320.21,957,329.21,961,325.21,965,329.21,961,320.21" style="stroke:#E7E7E7;stroke-width:1.0;"/></g><!--link TextUTP to OS--><g id="link_TextUTP_OS"><path codeLine="61" d="M2595,1459.273 C2595,1472.948 2595,1486.331 2595,1498.619 " fill="none" id="TextUTP-to-OS" style="stroke:#E7E7E7;stroke-width:1.0;stroke-dasharray:7.0,7.0;"/><polygon fill="none" points="2602,1498.748,2595,1518.748,2588,1498.748,2602,1498.748" style="stroke:#E7E7E7;stroke-width:1.0;"/></g><!--link GeneratorLog to LEVEL--><g id="link_GeneratorLog_LEVEL"><path codeLine="62" d="M961,1082.237 C961,1121.255 961,1189.539 961,1244.243 " fill="none" id="GeneratorLog-to-LEVEL" style="stroke:#E7E7E7;stroke-width:1.0;stroke-dasharray:7.0,7.0;"/><polygon fill="none" points="968,1244.455,961,1264.455,954,1244.455,968,1244.455" style="stroke:#E7E7E7;stroke-width:1.0;"/></g><!--link IOCreateArchive to TIPO--><g id="link_IOCreateArchive_TIPO"><path codeLine="63" d="M1425.85,1131.12 C1437.57,1172.211 1451.68,1221.695 1462.83,1260.773 " fill="none" id="IOCreateArchive-to-TIPO" style="stroke:#E7E7E7;stroke-width:1.0;stroke-dasharray:7.0,7.0;"/><polygon fill="none" points="1469.6,1259.007,1468.36,1280.16,1456.14,1262.847,1469.6,1259.007" style="stroke:#E7E7E7;stroke-width:1.0;"/></g><!--link IOCreateArchive to NOMBREJS--><g id="link_IOCreateArchive_NOMBREJS"><path codeLine="64" d="M1380.15,1131.12 C1367.59,1175.17 1352.27,1228.863 1340.81,1269.044 " fill="none" id="IOCreateArchive-to-NOMBREJS" style="stroke:#E7E7E7;stroke-width:1.0;stroke-dasharray:7.0,7.0;"/><polygon fill="none" points="1347.5,1271.108,1335.29,1288.421,1334.04,1267.268,1347.5,1271.108" style="stroke:#E7E7E7;stroke-width:1.0;"/></g><!--reverse link IOSismos to TextUTP--><g id="link_IOSismos_TextUTP"><path codeLine="65" d="M2595,1144.432 C2595,1161.969 2595,1180.589 2595,1198.984 " fill="none" id="IOSismos-backto-TextUTP" style="stroke:#E7E7E7;stroke-width:1.0;"/><polygon fill="#E7E7E7" points="2595,1139.025,2591,1148.025,2595,1144.025,2599,1148.025,2595,1139.025" style="stroke:#E7E7E7;stroke-width:1.0;"/></g><!--SRC=[nLZBRjiu5DthAuIkLDGsqCLiPee0YcEdCXmxi9LcYY0BHc9ijf8eK9GpGIRpxNCfIXGfoebRfoWC6D1z7DwNpgMTe-Wxsc3tNS6YT-wJapVFAIAP8VY6TiWGv7Y4ut9Kybo8pn17nPeKAItSuV34BJb9HcEKH6M2EEvN1yinmw3rMRGbkxr6KkBuURx2EMMyjlWq74gBBoWXCS20E_wA4UkrrB3t8vtZ33F4APlJpNwhRjWl6Bvsu9Ga-0mdc6Est-WCr16_e1dVxZSAyJ_yAhnqGboyNg2EaLwRFd-LHx_Ih4QVZPvcd_wbu8sUH0ag2hTRX2VdW_jKSCH9zEoAmVNMd95iStFh8hOfthj_kZjAOkUvzjVdxCaPkYG6YuHccx_WuHv7MtGLZa4aKOHmIvabWxacl1IkCItl4bp90CGIvepUbraCBH1oad4XJD4cioohiyUG6DPE-b35MuVhlUyyMpXT0vNSm4vjO2KsiD8Qs4aDx9G6TaA3ldHUY2v7h126SngXH8pgxubkWtaGGvthk41II8aALSrJPJnjYbgvI1pfr6gimfiGd-iqBGIbw1R2z9_NHQdyPNhINocwPUluDoMq0PJ6AhC9STcMl0A1eai4NM7rnSIug7jaHQ4Kzh3RhQWwsjyBgUhhUml3gHGPpMY8G-Edmpb7BKn1Ps9LrcpdZaR_dhZBjQCpd1JE9rycSwV3h58L1fVBVirYUN6wcipMJaFN5OSsr2eJK0iPmlYlZH-uDC8PHz-mwt7AKTAyDZkKKBOeKyn8H8sgrvLH41k6TXWQgtXAMT_SjiJRRZ8pW9tSK8HcKkcbk32w8-P9iq-5LKWXCjVBobGwDIEb-huFFcGbdg84sCPBQy_sf3jA4umo5REskyocY_QwSQKHDl2MmtU6KfrEdXqCuSb-YalIvFJgt0aMqwLpxQyMpcIrMgwSgH_wStMUCGt6WH7YqLP8lRJOw9o8TrXqh3f56xpgQ34l0EElnq7WV0ulvd_8x_ELFmt6C7srNJCzOAjKbylLUB88_TbahSBhZbxdFVYEvMQ6EIAvc1XnFeH8m0IUMkg_kMsdwBGaIGnNWmxI3COee-aTgm-ZCp4JJQ2s-z1qhr9keZaiW0v2LQZZ4SuPkeVNfp2GVX1e1hVlTSH8pY_Lkrhe7FMgNnD5Zq_RspvoIoYAzPLjZVd0VOHBfLnFDQdhkVr-h22BICjfjN1AiaPsv2awLxrj_2Poi_s2ZDJvD5SPfMgIQXHl6KoC7jLjwhYCctsE-mwo0BI9ZWGpIpEFP7d93I-rh2j2MmegkmuMPylhjJCF5bT_QsjSBc1Zp87LuZtXs0j562Sam_sLeg8wougXvl2kVvBo4_TGXCCS_S9d37hoIWJDjUG7CGnNhGKFZ70i2kXwi5458TuzSjZnS9_kWwXlLSeTvJdEOkNRnFlplhqd3zm7mhSB_3279DkTRjJbpT6F0pt0Mn-9NvFqpvrmFB3r2xtxZqNdvbLhAurdqS_U-n-Mngsb_9LYcNsKTXzDm-Vsypy0]--></g></svg>